<?xml version="1.0" standalone="no"?>
<!DOCTYPE svg PUBLIC "-//W3C//DTD SVG 20010904//EN"
 "http://www.w3.org/TR/2001/REC-SVG-20010904/DTD/svg10.dtd">
<svg version="1.0" xmlns="http://www.w3.org/2000/svg"
 width="300.000000pt" height="300.000000pt" viewBox="0 0 300.000000 300.000000"
 preserveAspectRatio="xMidYMid meet">
<metadata>
    Created by potrace 1.10, written by Peter Selinger 2001-2011
</metadata>
<g transform="translate(0.000000,300.000000) scale(0.100000,-0.100000)"
fill="#000000" stroke="none">
    <path d="M398 1913 l-58 -4 0 -303 0 -304 45 -4 45 -3 0 152 0 153 79 0 c65 0
    84 -4 112 -23 l34 -23 0 53 c0 29 -1 53 -3 53 -2 0 -15 -9 -30 -20 -21 -16
    -45 -21 -110 -22 l-82 -3 0 143 0 142 58 0 c86 0 168 -23 213 -59 l39 -32 0
    51 0 50 -68 0 c-38 0 -102 2 -143 4 -41 2 -100 2 -131 -1z"/>
    <path d="M1905 1910 c-28 -4 -65 -14 -81 -23 -41 -21 -94 -82 -95 -110 -1 -12
    -3 -32 -4 -45 -1 -13 7 -42 19 -65 29 -57 99 -91 231 -113 117 -19 152 -35
    161 -70 17 -69 -42 -107 -166 -108 -77 -1 -92 2 -153 32 -38 19 -70 32 -71 30
    -5 -5 -26 -70 -26 -79 0 -4 26 -20 58 -35 75 -36 195 -39 257 -7 126 66 158
    196 69 280 -43 40 -111 62 -232 72 -102 9 -132 25 -132 71 0 90 203 122 362
    55 13 -5 19 2 28 36 17 61 5 68 -145 83 -16 1 -53 -1 -80 -4z m87 -308 c6 -6
    -7 -7 -32 -2 -22 4 -44 11 -48 15 -10 11 69 -2 80 -13z"/>
    <path d="M790 1606 l0 -303 64 -6 c35 -3 119 -3 185 0 l121 6 0 43 0 43 -35
    -20 c-46 -28 -117 -49 -187 -56 l-58 -5 0 301 0 301 -45 0 -45 0 0 -304z"/>
    <path d="M1230 1653 c0 -238 2 -260 20 -290 36 -60 99 -82 181 -63 77 19 138
    73 177 157 42 92 52 150 52 314 l0 139 -42 0 -43 0 3 -212 c2 -117 1 -232 -3
    -256 -9 -63 -39 -75 -178 -70 -106 3 -110 4 -134 32 -23 27 -24 34 -18 105 8
    94 49 267 81 339 13 30 24 56 24 58 0 2 -27 4 -60 4 l-60 0 0 -257z"/>
    <path d="M2210 1606 l0 -304 45 -4 45 -3 0 307 0 308 -45 0 -45 0 0 -304z"/>
    <path d="M2560 1610 c0 -165 0 -303 0 -307 0 -3 18 -6 40 -6 l41 0 2 306 2
    307 -42 0 -43 0 0 -300z"/>
    <path d="M2315 1600 c-4 -6 35 -10 110 -10 75 0 114 4 110 10 -3 6 -52 10
    -110 10 -58 0 -107 -4 -110 -10z"/>
    <path d="M1470 1169 c0 -11 5 -17 10 -14 6 4 8 12 4 18 -3 7 1 4 9 -5 8 -10
    23 -18 33 -17 18 0 18 1 -1 8 -19 8 -19 8 0 19 18 10 15 11 -17 12 -32 0 -38
    -3 -38 -21z"/>
    <path d="M1562 1178 c-7 -7 -12 -15 -12 -18 0 -9 53 -5 68 4 19 11 14 26 -8
    26 -11 0 -20 -6 -20 -12 0 -10 -2 -10 -8 -1 -6 10 -11 10 -20 1z"/>
</g>
</svg>
